General
Complete name                    : The Queen of Sheba's Pearls.mkv
Format                           : Matroska
File size                        : 920 MiB
Duration                         : 2h 5mn
Overall bit rate                 : 1 026 Kbps


Video
ID                               : 1
Format                           : AVC
Duration                         : 2h 5mn
Bit rate                         : 557 Kbps
Width                            : 706 pixels
Height                           : 438 pixels
Display aspect ratio             : 2.25:1
Frame rate                       : 25.000 fps
Resolution                       : 8 bits
Colorimetry                      : 4:2:0
Scan type                        : Progressive
Bits/(Pixel*Frame)               : 0.072
Stream size                      : 500 MiB (54%)
Writing library                  : x264 core 79


Audio
ID                               : 2
Format                           : AC-3
Format/Info                      : Audio Coding 3
Codec ID                         : A_AC3
Duration                         : 2h 5mn
Bit rate mode                    : Constant
Bit rate                         : 448 Kbps
Channel(s)                       : 6 channels
Channel positions                : Front: L C R, Surround: L R, LFE
Sampling rate                    : 48.0 KHz
Stream size                      : 402 MiB (44%)
Language                         : English

Text #1
Language                         : Swedish

Text #2
Language                         : English



